<svg width="26" height="24" viewBox="0 0 26 24" fill="none" xmlns="http://www.w3.org/2000/svg">
<path d="M21.5235 15.5147C20.1502 14.2077 18.5157 13.2402 16.7323 12.6545C18.6424 11.4024 19.8972 9.30694 19.8972 6.9375C19.8972 3.11217 16.6273 0 12.6081 0C8.58895 0 5.31906 3.11217 5.31906 6.9375C5.31906 9.30694 6.57391 11.4024 8.48399 12.6545C6.70063 13.2402 5.06611 14.2077 3.69285 15.5147C1.31149 17.7812 0 20.7947 0 24H1.97002C1.97002 18.417 6.74225 13.875 12.6081 13.875C18.474 13.875 23.2462 18.417 23.2462 24H25.2163C25.2163 20.7947 23.9048 17.7812 21.5235 15.5147ZM12.6081 12C9.67521 12 7.28908 9.729 7.28908 6.9375C7.28908 4.146 9.67521 1.875 12.6081 1.875C15.541 1.875 17.9272 4.146 17.9272 6.9375C17.9272 9.729 15.541 12 12.6081 12Z" fill="#303030"/>
</svg>
