<svg width="22" height="25" viewBox="0 0 22 25" fill="none" xmlns="http://www.w3.org/2000/svg">
<path d="M21.9181 24.1783L19.993 6.08387C19.9526 5.70507 19.6292 5.41744 19.2432 5.41744H15.6249V4.6032C15.6249 2.06509 13.5327 0 10.9612 0C8.38952 0 6.29727 2.06509 6.29727 4.6032V5.41744H2.67897C2.29306 5.41744 1.96957 5.70507 1.92919 6.08387L0.00409289 24.1783C-0.0181302 24.3879 0.0508579 24.5972 0.193665 24.754C0.336665 24.9105 0.540344 25 0.753879 25H21.1681C21.3819 25 21.5856 24.9105 21.7284 24.754C21.8716 24.5972 21.9403 24.3879 21.9181 24.1783ZM7.80496 4.6032C7.80496 2.88563 9.22085 1.48811 10.9612 1.48811C12.7014 1.48811 14.1173 2.88563 14.1173 4.6032V5.41744H7.80496V4.6032ZM1.59101 23.5119L3.35784 6.90556H6.29727V8.5453C6.29727 8.95615 6.63487 9.28936 7.05111 9.28936C7.46736 9.28936 7.80496 8.95615 7.80496 8.5453V6.90556H14.1173V8.5453C14.1173 8.95615 14.4549 9.28936 14.8711 9.28936C15.2874 9.28936 15.6249 8.95615 15.6249 8.5453V6.90556H18.5644L20.3312 23.5119H1.59101Z" fill="#303030"/>
</svg>
