<svg width="22" height="21" viewBox="0 0 22 21" fill="none" xmlns="http://www.w3.org/2000/svg">
<path d="M20.9238 18.9985L15.8312 14.2419C17.0935 12.8044 17.8544 10.9631 17.8544 8.95623C17.8544 4.353 13.8555 0.61792 8.92721 0.61792C3.99455 0.61792 0 4.353 0 8.95623C0 13.5595 3.99455 17.2945 8.92721 17.2945C11.0758 17.2945 13.0428 16.5879 14.5818 15.4088L19.6744 20.1615C20.0203 20.4845 20.578 20.4845 20.9238 20.1615C21.2697 19.8425 21.2697 19.3175 20.9238 18.9985ZM8.92721 15.6349C4.98021 15.6349 1.77247 12.6388 1.77247 8.95623C1.77247 5.27364 4.98021 2.27347 8.92721 2.27347C12.8699 2.27347 16.0819 5.27364 16.0819 8.95623C16.0819 12.6388 12.8699 15.6349 8.92721 15.6349Z" fill="black"/>
</svg>
