<svg width="44" height="36" viewBox="0 0 44 36" fill="none" xmlns="http://www.w3.org/2000/svg">
<g clip-path="url(#clip0_363_223)">
<path d="M36.8511 33.9944C36.8198 33.9294 36.8198 33.8806 36.8042 33.8969C36.7886 33.8969 36.7573 33.9294 36.726 33.9294C36.5697 34.0107 36.3039 34.1245 35.9287 34.1245C35.2095 34.1245 34.5528 33.5392 34.5528 32.6125C34.5528 31.5883 35.0844 31.0356 35.8192 31.0356C36.2257 31.0356 36.5071 31.1494 36.7729 31.3282C36.898 30.8567 37.1169 30.4178 37.367 30.0601C37.2576 29.9788 37.0856 29.865 36.8511 29.7512C36.4915 29.5887 36.1006 29.4911 35.6472 29.4911C34.0369 29.4911 32.8174 30.6291 32.8174 32.58C32.8174 34.5309 34.0369 35.6527 35.6472 35.6527C36.429 35.6527 37.0231 35.3926 37.0231 35.3926C37.1482 35.3438 37.367 35.23 37.4452 35.1975C37.1013 34.6772 36.9293 34.1895 36.8511 33.9944Z" fill="white"/>
<path d="M0 27.6376H3.15819C4.37768 27.6376 5.28449 28.2879 5.28449 29.6372C5.28449 30.6289 4.86235 31.1817 4.12753 31.4743V31.4906C5.00307 31.7019 5.44083 32.2709 5.44083 33.2301C5.44083 35.116 4.06499 35.5062 2.8924 35.5062H0V27.6376ZM1.73544 34.0267H2.40773C3.04874 34.0267 3.7054 33.9129 3.7054 33.1163C3.7054 32.2547 3.01747 32.1734 2.42336 32.1734H1.73544V34.0267ZM1.73544 30.759H2.37646C2.9393 30.759 3.53342 30.5964 3.53342 29.9299C3.53342 29.1983 2.97057 29.1332 2.39209 29.1332H1.73544V30.759Z" fill="white"/>
<path d="M21.435 35.5224H19.8872V34.6445H19.8559C19.5276 35.2948 18.9022 35.6688 18.183 35.6688C16.729 35.6688 15.9629 34.2219 15.9629 32.4823C15.9629 31.0354 16.6977 29.5072 18.0423 29.5072C18.7146 29.5072 19.2774 29.7185 19.7152 30.4014H19.7308V27.6213H21.4193V35.5224H21.435ZM18.7146 34.1081C19.2774 34.1081 19.7464 33.4578 19.7464 32.5961C19.7464 31.702 19.3399 31.0679 18.7146 31.0679C18.0579 31.0679 17.6983 31.7507 17.6983 32.5311C17.6983 33.4578 18.0736 34.1081 18.7146 34.1081Z" fill="white"/>
<path d="M37.6641 32.58C37.6641 30.6291 38.8836 29.4911 40.4939 29.4911C42.1043 29.4911 43.3238 30.6291 43.3238 32.58C43.3238 34.5309 42.1043 35.6527 40.4939 35.6527C38.8836 35.6689 37.6641 34.5309 37.6641 32.58ZM41.5883 32.58C41.5883 31.7021 41.2756 30.9218 40.4939 30.9218C39.7122 30.9218 39.3995 31.7021 39.3995 32.58C39.3995 33.4579 39.7122 34.2383 40.4939 34.2383C41.2756 34.2383 41.5883 33.4579 41.5883 32.58Z" fill="white"/>
<path d="M15.1808 35.5223C15.1026 35.0509 15.087 34.5956 15.087 34.1404V31.9457C15.087 30.1411 14.0082 29.5071 12.7731 29.5071C12.0695 29.5071 11.4441 29.6372 10.85 29.9135V31.2954V31.3117C11.319 31.0028 11.8662 30.8727 12.3978 30.8727C13.0076 30.8727 13.4922 31.0841 13.5079 31.8969C13.289 31.8482 12.9919 31.8156 12.7262 31.8156C11.835 31.8156 10.209 32.027 10.209 33.8316C10.209 35.1159 11.0689 35.6849 12.0382 35.6849C12.6792 35.6849 13.2265 35.376 13.5391 34.7745V35.5548H15.1808V35.5223ZM13.5235 33.6527C13.3046 34.0592 12.9294 34.2705 12.476 34.2705C12.0851 34.2705 11.7881 34.0266 11.7881 33.6202C11.7881 33.0512 12.2415 32.8399 12.8043 32.8399C13.0545 32.8399 13.3046 32.8561 13.5235 32.8724V33.6527Z" fill="white"/>
<path d="M9.39636 29.4911C8.66154 29.4911 8.2394 29.9626 7.95798 30.7104H7.94234V29.6212H6.41016V35.5064H8.09869V33.019C8.09869 31.8647 8.53646 31.1656 9.31819 31.1169C9.47453 31.1006 9.75596 31.1494 9.89667 31.2144V29.5887C9.74032 29.5399 9.53707 29.4911 9.39636 29.4911Z" fill="white"/>
<path d="M27.3605 32.8074C27.3605 31.0516 26.7039 29.5071 24.9059 29.5071C23.3893 29.5071 22.2949 30.6451 22.2949 32.5797C22.2949 34.5306 23.5144 35.6687 25.1248 35.6687C25.7502 35.6687 26.3755 35.5549 26.9071 35.2947V33.8641C26.4068 34.1892 25.8752 34.3193 25.4218 34.3193C24.5932 34.3193 24.0773 33.9941 23.9835 33.1813H27.3605V32.8074ZM23.9835 32.027C24.0147 31.3442 24.3118 30.7914 24.9215 30.7914C25.5938 30.7914 25.8596 31.3442 25.8596 32.027H23.9835Z" fill="white"/>
<path d="M30.1907 29.4911C29.2214 29.4911 28.1113 30.0439 28.1113 31.4095C28.1113 33.5392 30.5034 32.8402 30.5034 33.8319C30.5034 34.2383 30.1595 34.3033 29.8155 34.3033C29.2058 34.3033 28.6273 34.1082 28.2364 33.8969V35.295C28.6742 35.4901 29.2058 35.6527 29.9093 35.6527C31.0194 35.6527 32.1763 35.2625 32.1763 33.6855C32.1763 31.442 29.6748 32.1736 29.6748 31.2469C29.6748 30.9218 30.0813 30.8242 30.4565 30.8405C30.8474 30.8567 31.4415 31.0193 31.8011 31.2794V29.8325C31.3008 29.6212 30.738 29.4911 30.1907 29.4911Z" fill="white"/>
<path d="M32.9104 23.687H15.1183C15.1183 23.687 10.1309 23.687 10.1309 18.5008V-0.00012207H27.923C27.923 -0.00012207 32.9104 -0.00012207 32.9104 5.186V23.687Z" fill="#BA0038"/>
<path d="M20.4968 20.354H19.3867V14.3876H20.4968V20.354Z" fill="white"/>
<path d="M23.3575 20.3541H21.5127V12.1603H23.3575V20.3541Z" fill="white"/>
<path d="M18.3706 6.43784C18.3706 6.43784 20.2155 4.55198 23.3424 5.16976C23.3424 5.16976 24.7182 5.39737 25.7657 6.35656C25.7657 6.35656 25.9221 6.50287 26.0472 6.38907C26.0472 6.38907 26.2035 6.25901 26.0315 6.08018C26.0315 6.08018 25.1247 4.77959 23.3424 4.19432C23.3424 4.19432 20.8878 3.2839 18.3706 4.51947C18.3706 4.51947 16.8228 5.18602 15.9629 7.00685C15.9629 7.00685 14.7434 7.41329 13.8209 7.94979C13.8209 7.94979 13.5552 8.06359 13.649 8.27493C13.649 8.27493 13.7428 8.43751 13.9773 8.30745C13.9773 8.30745 14.8372 7.99856 15.6502 7.80347C15.6502 7.80347 14.9935 9.59179 15.6814 11.8028C15.9941 12.7945 16.557 13.8025 17.4012 14.5991C17.4012 14.5991 17.542 14.7454 17.6983 14.6478C17.6983 14.6478 17.8234 14.5503 17.7452 14.3877C17.7452 14.3877 17.0573 13.3147 16.7915 11.7865C16.5726 10.551 16.6821 8.82769 17.5107 7.46206C17.5107 7.46206 20.6689 7.00685 23.358 8.06359C23.358 8.06359 27.9233 9.60804 26.782 12.4856C26.782 12.4856 26.4537 13.4936 25.1873 14.3877C25.1873 14.3877 24.9684 14.5178 25.0934 14.6966C25.0934 14.6966 25.1873 14.8429 25.4061 14.7454C25.4061 14.7454 27.3448 14.0951 28.1735 12.4694C28.1735 12.4694 29.862 9.77062 25.8752 7.57586C25.8752 7.57586 24.7808 6.95808 23.3736 6.63293C23.3424 6.71422 20.7939 6.06392 18.3706 6.43784Z" fill="white"/>
</g>
<defs>
<clipPath id="clip0_363_223">
<rect width="43.3234" height="35.6688" fill="white"/>
</clipPath>
</defs>
</svg>
