<svg width="20" height="24" viewBox="0 0 20 24" fill="none" xmlns="http://www.w3.org/2000/svg">
<rect width="20" height="24" fill="#1E1E1E"/>
<g clip-path="url(#clip0_0_1)">
<rect width="1920" height="2948" transform="translate(-1583 -2465)" fill="white"/>
<rect width="1980" height="651" transform="translate(-1632 -199)" fill="black"/>
<path d="M17.2127 0H2.6807C1.20022 0 0 1.44339 0 3.22394V20.701C0 22.4815 1.20017 23.9249 2.6807 23.9249H9.84779L9.86001 15.3754H8.01313C7.77312 15.3754 7.57831 15.142 7.57739 14.8534L7.56853 12.0975C7.56761 11.8073 7.763 11.5714 8.00433 11.5714H9.84784V8.90859C9.84784 5.81838 11.4171 4.13573 13.7093 4.13573H15.5902C15.8308 4.13573 16.026 4.37037 16.026 4.65984V6.98358C16.026 7.27294 15.831 7.50752 15.5904 7.50769L14.4361 7.50834C13.1896 7.50834 12.9482 8.22072 12.9482 9.26619V11.5715H15.6873C15.9483 11.5715 16.1508 11.8456 16.12 12.1573L15.8484 14.9131C15.8225 15.1769 15.6365 15.3756 15.4157 15.3756H12.9604L12.9482 23.925H17.2128C18.6932 23.925 19.8934 22.4816 19.8934 20.7011V3.22394C19.8934 1.44339 18.6932 0 17.2127 0Z" fill="white"/>
</g>
<defs>
<clipPath id="clip0_0_1">
<rect width="1920" height="2948" fill="white" transform="translate(-1583 -2465)"/>
</clipPath>
</defs>
</svg>
