<svg width="20" height="22" viewBox="0 0 20 22" fill="none" xmlns="http://www.w3.org/2000/svg">
<rect width="20" height="22" fill="#1E1E1E"/>
<g clip-path="url(#clip0_0_1)">
<rect width="1920" height="2948" transform="translate(-1652 -2465)" fill="white"/>
<rect width="1980" height="651" transform="translate(-1701 -199)" fill="black"/>
<g clip-path="url(#clip1_0_1)">
<rect width="19.6925" height="21.6175" fill="#030303"/>
<path d="M13.826 0H5.86649C2.63169 0 0 2.88895 0 6.43996V15.1775C0 18.7285 2.63169 21.6175 5.86649 21.6175H13.826C17.0608 21.6175 19.6925 18.7285 19.6925 15.1775V6.43996C19.6924 2.88895 17.0607 0 13.826 0ZM17.7114 15.1775C17.7114 17.5331 15.9718 19.4427 13.826 19.4427H5.86649C3.72065 19.4427 1.98106 17.5331 1.98106 15.1775V6.43996C1.98106 4.08431 3.72065 2.17472 5.86649 2.17472H13.826C15.9718 2.17472 17.7114 4.08431 17.7114 6.43996V15.1775Z" fill="url(#paint0_linear_0_1)"/>
<path d="M9.8461 5.21768C7.03772 5.21768 4.75293 7.72582 4.75293 10.8087C4.75293 13.8916 7.03772 16.3997 9.8461 16.3997C12.6545 16.3997 14.9393 13.8916 14.9393 10.8087C14.9393 7.72578 12.6545 5.21768 9.8461 5.21768ZM9.8461 14.2251C8.12732 14.2251 6.73399 12.6955 6.73399 10.8087C6.73399 8.92192 8.12735 7.3924 9.8461 7.3924C11.5649 7.3924 12.9582 8.92192 12.9582 10.8087C12.9582 12.6955 11.5649 14.2251 9.8461 14.2251Z" fill="url(#paint1_linear_0_1)"/>
<path d="M14.9489 6.59947C15.623 6.59947 16.1694 5.99965 16.1694 5.25974C16.1694 4.51983 15.623 3.92001 14.9489 3.92001C14.2749 3.92001 13.7285 4.51983 13.7285 5.25974C13.7285 5.99965 14.2749 6.59947 14.9489 6.59947Z" fill="url(#paint2_linear_0_1)"/>
</g>
</g>
<defs>
<linearGradient id="paint0_linear_0_1" x1="9.84623" y1="21.5545" x2="9.84623" y2="0.167906" gradientUnits="userSpaceOnUse">
<stop stop-color="white"/>
<stop offset="0.3" stop-color="white"/>
<stop offset="0.6" stop-color="white"/>
<stop offset="1" stop-color="white"/>
</linearGradient>
<linearGradient id="paint1_linear_0_1" x1="9.8461" y1="21.5545" x2="9.8461" y2="0.167905" gradientUnits="userSpaceOnUse">
<stop stop-color="white"/>
<stop offset="0.3" stop-color="white"/>
<stop offset="0.6" stop-color="white"/>
<stop offset="1" stop-color="white"/>
</linearGradient>
<linearGradient id="paint2_linear_0_1" x1="14.9489" y1="21.5546" x2="14.9489" y2="0.167989" gradientUnits="userSpaceOnUse">
<stop stop-color="white"/>
<stop offset="0.3" stop-color="white"/>
<stop offset="0.6" stop-color="white"/>
<stop offset="1" stop-color="white"/>
</linearGradient>
<clipPath id="clip0_0_1">
<rect width="1920" height="2948" fill="white" transform="translate(-1652 -2465)"/>
</clipPath>
<clipPath id="clip1_0_1">
<rect width="19.6925" height="21.6175" fill="white"/>
</clipPath>
</defs>
</svg>
