<svg width="40" height="34" viewBox="0 0 40 34" fill="none" xmlns="http://www.w3.org/2000/svg">
<g clip-path="url(#clip0_363_217)">
<path d="M7.15389 33.3384V31.1159C7.15389 30.274 6.67696 29.7183 5.87695 29.7183C5.47695 29.7183 5.03079 29.8699 4.7231 30.3413C4.49233 29.9372 4.15386 29.7183 3.64617 29.7183C3.3077 29.7183 2.96924 29.8362 2.7077 30.2403V29.8025H2V33.3384H2.7077V31.3853C2.7077 30.7623 3.01539 30.4592 3.47693 30.4592C3.93848 30.4592 4.18463 30.7959 4.18463 31.3853V33.3384H4.89233V31.3853C4.89233 30.7623 5.23079 30.4592 5.66157 30.4592C6.13849 30.4592 6.36927 30.7959 6.36927 31.3853V33.3384H7.15389ZM17.6617 29.7857H16.5078V28.7081H15.8001V29.7857H15.154V30.4929H15.8001V32.1261C15.8001 32.9343 16.1078 33.4226 16.9078 33.4226C17.2155 33.4226 17.554 33.3048 17.7847 33.1701L17.5847 32.4966C17.3847 32.6481 17.1386 32.6818 16.9694 32.6818C16.6309 32.6818 16.4924 32.4629 16.4924 32.0924V30.5097H17.6463V29.7857H17.6617ZM23.6771 29.7183C23.2771 29.7183 23.0002 29.9372 22.8309 30.2403V29.8025H22.1232V33.3384H22.8309V31.3348C22.8309 30.7454 23.0617 30.4087 23.5079 30.4087C23.6463 30.4087 23.8156 30.4424 23.954 30.476L24.154 29.7352C24.0156 29.7183 23.8156 29.7183 23.6771 29.7183ZM14.5847 30.0888C14.2463 29.8362 13.7693 29.7183 13.2616 29.7183C12.4462 29.7183 11.9078 30.1561 11.9078 30.8633C11.9078 31.4526 12.3078 31.7894 13.0155 31.8904L13.3539 31.9241C13.7232 31.9914 13.9232 32.1093 13.9232 32.2945C13.9232 32.5471 13.6462 32.7323 13.1847 32.7323C12.7232 32.7323 12.3385 32.5471 12.1078 32.3619L11.7693 32.9512C12.1385 33.2543 12.6462 33.389 13.1539 33.389C14.0924 33.389 14.6463 32.9007 14.6463 32.244C14.6463 31.621 14.2001 31.2842 13.5386 31.1664L13.2001 31.1327C12.8924 31.099 12.6616 31.0148 12.6616 30.7959C12.6616 30.5434 12.8924 30.3918 13.277 30.3918C13.677 30.3918 14.0924 30.5771 14.2924 30.6949L14.5847 30.0888ZM33.431 29.7183C33.031 29.7183 32.7541 29.9372 32.5849 30.2403V29.8025H31.8772V33.3384H32.5849V31.3348C32.5849 30.7454 32.8156 30.4087 33.2618 30.4087C33.4002 30.4087 33.5695 30.4424 33.7079 30.476L33.9079 29.7352C33.7695 29.7183 33.5695 29.7183 33.431 29.7183ZM24.3848 31.5705C24.3848 32.6481 25.0617 33.4226 26.1079 33.4226C26.5848 33.4226 26.9233 33.3048 27.2617 33.0185L26.9233 32.3955C26.6464 32.6144 26.3848 32.7323 26.0771 32.7323C25.5079 32.7323 25.0925 32.2945 25.0925 31.5873C25.0925 30.9138 25.4925 30.476 26.0771 30.4424C26.3848 30.4424 26.6464 30.5602 26.9233 30.7791L27.2617 30.1561C26.9233 29.853 26.5848 29.752 26.1079 29.752C25.0617 29.7183 24.3848 30.4929 24.3848 31.5705ZM30.9387 31.5705V29.8025H30.231V30.2403C30.0002 29.9035 29.6618 29.7183 29.2156 29.7183C28.3079 29.7183 27.6002 30.4929 27.6002 31.5705C27.6002 32.6481 28.3079 33.4226 29.2156 33.4226C29.6925 33.4226 30.031 33.2374 30.231 32.9007V33.3384H30.9387V31.5705ZM28.3387 31.5705C28.3387 30.9475 28.7079 30.4255 29.3233 30.4255C29.8925 30.4255 30.3079 30.9138 30.3079 31.5705C30.3079 32.1935 29.9079 32.7154 29.3233 32.7154C28.7079 32.6818 28.3387 32.1935 28.3387 31.5705ZM19.8617 29.7183C18.9232 29.7183 18.2463 30.4592 18.2463 31.5705C18.2463 32.6818 18.9232 33.4226 19.9078 33.4226C20.3848 33.4226 20.8463 33.2711 21.2309 32.9343L20.8925 32.3787C20.6155 32.5976 20.2771 32.7491 19.954 32.7491C19.5078 32.7491 19.0771 32.5302 18.9694 31.9072H21.3694V31.6042C21.3848 30.4592 20.7694 29.7183 19.8617 29.7183ZM19.8617 30.375C20.3078 30.375 20.6001 30.6781 20.6771 31.2169H18.9848C19.0463 30.7454 19.354 30.375 19.8617 30.375ZM37.4618 31.5705V28.3882H36.7541V30.2403C36.5233 29.9035 36.1849 29.7183 35.7387 29.7183C34.831 29.7183 34.1233 30.4929 34.1233 31.5705C34.1233 32.6481 34.831 33.4226 35.7387 33.4226C36.2157 33.4226 36.5541 33.2374 36.7541 32.9007V33.3384H37.4618V31.5705ZM34.8464 31.5705C34.8464 30.9475 35.2156 30.4255 35.831 30.4255C36.4003 30.4255 36.8157 30.9138 36.8157 31.5705C36.8157 32.1935 36.4157 32.7154 35.831 32.7154C35.231 32.6818 34.8464 32.1935 34.8464 31.5705ZM11.1385 31.5705V29.8025H10.4308V30.2403C10.2001 29.9035 9.8616 29.7183 9.41544 29.7183C8.50774 29.7183 7.80005 30.4929 7.80005 31.5705C7.80005 32.6481 8.50774 33.4226 9.41544 33.4226C9.89237 33.4226 10.2308 33.2374 10.4308 32.9007V33.3384H11.1385V31.5705ZM8.50774 31.5705C8.50774 30.9475 8.87698 30.4255 9.49237 30.4255C10.0616 30.4255 10.477 30.9138 10.477 31.5705C10.477 32.1935 10.077 32.7154 9.49237 32.7154C8.87698 32.6818 8.50774 32.1935 8.50774 31.5705Z" fill="white"/>
<path d="M24.9998 2.84557H14.3535V23.7749H24.9998V2.84557Z" fill="#FF5F00"/>
<path d="M15.0309 13.3017C15.0309 9.05857 16.8617 5.28692 19.6617 2.84545C17.6001 1.07749 15.0001 -0.00012207 12.1539 -0.00012207C5.43081 -0.00012207 0 5.94359 0 13.3017C0 20.6598 5.43081 26.6035 12.1539 26.6035C14.9847 26.6035 17.5848 25.5259 19.6463 23.7579C16.8463 21.3669 15.0309 17.5616 15.0309 13.3017Z" fill="#EB001B"/>
<path d="M39.3387 13.3017C39.3387 20.6598 33.9079 26.6035 27.1847 26.6035C24.354 26.6035 21.7539 25.5259 19.6924 23.7579C22.5232 21.3164 24.3232 17.5448 24.3232 13.3017C24.3232 9.05857 22.4924 5.28692 19.6924 2.84545C21.7539 1.07749 24.354 -0.00012207 27.1847 -0.00012207C33.9079 -0.00012207 39.3387 5.99411 39.3387 13.3017Z" fill="#F79E1B"/>
</g>
<defs>
<clipPath id="clip0_363_217">
<rect width="39.3849" height="33.5071" fill="white"/>
</clipPath>
</defs>
</svg>
