<svg width="31" height="27" viewBox="0 0 31 27" fill="none" xmlns="http://www.w3.org/2000/svg">
<rect width="31" height="27" fill="#1E1E1E"/>
<g clip-path="url(#clip0_0_1)">
<rect width="1920" height="2948" transform="translate(-1614 -2465)" fill="white"/>
<rect width="1980" height="651" transform="translate(-1663 -199)" fill="black"/>
<g filter="url(#filter0_d_0_1)">
<path d="M25.871 2.18877C25.3772 2.41163 24.8646 2.58744 24.3387 2.71472C24.9182 2.15419 25.354 1.4531 25.5998 0.670546C25.67 0.447141 25.4316 0.253957 25.2334 0.373573C24.5016 0.815309 23.7135 1.14669 22.8907 1.35863C22.8429 1.37093 22.7937 1.37716 22.7442 1.37716C22.5944 1.37716 22.4487 1.32052 22.3341 1.21772C21.4586 0.432471 20.3327 0 19.1638 0C18.6579 0 18.1472 0.0802405 17.6458 0.238516C16.0922 0.728947 14.8935 2.03325 14.5174 3.64248C14.3763 4.24607 14.3381 4.85022 14.4037 5.4381C14.4113 5.50565 14.3799 5.55281 14.3605 5.57492C14.3266 5.61369 14.2784 5.63591 14.2284 5.63591C14.2228 5.63591 14.2171 5.63564 14.2114 5.63509C10.8106 5.31352 7.74388 3.64601 5.57619 0.939779C5.46565 0.801743 5.25367 0.818673 5.16557 0.972481C4.74108 1.71367 4.51675 2.56141 4.51675 3.42403C4.51675 4.74604 5.03861 5.99189 5.94508 6.90013C5.56389 6.80814 5.19494 6.66327 4.85221 6.46953C4.6864 6.37578 4.4824 6.49628 4.48007 6.6893C4.45633 8.65323 5.5861 10.4008 7.27853 11.1877C7.24445 11.1885 7.21037 11.1889 7.17623 11.1889C6.90796 11.1889 6.63633 11.1625 6.36898 11.1105C6.18225 11.0742 6.02538 11.2545 6.08336 11.4388C6.6327 13.1843 8.10936 14.4709 9.87646 14.763C8.40988 15.765 6.702 16.2935 4.92444 16.2935L4.37029 16.2932C4.19955 16.2932 4.05514 16.4064 4.01163 16.5748C3.96877 16.7405 4.04772 16.9154 4.19332 17.0016C6.19634 18.188 8.48108 18.815 10.8015 18.815C12.8327 18.815 14.7326 18.4048 16.4487 17.5958C18.0219 16.8541 19.412 15.7939 20.5806 14.4446C21.6692 13.1876 22.5205 11.7366 23.1106 10.1319C23.6733 8.60227 23.9706 6.97011 23.9706 5.41185V5.33762C23.9706 5.08741 24.0818 4.85198 24.2757 4.69172C25.0119 4.08344 25.6529 3.3674 26.1809 2.5635C26.3203 2.35124 26.1004 2.0852 25.871 2.18877Z" fill="white"/>
</g>
</g>
<defs>
<filter id="filter0_d_0_1" x="0" y="0" width="30.2246" height="26.815" filterUnits="userSpaceOnUse" color-interpolation-filters="sRGB">
<feFlood flood-opacity="0" result="BackgroundImageFix"/>
<feColorMatrix in="SourceAlpha" type="matrix" values="0 0 0 0 0 0 0 0 0 0 0 0 0 0 0 0 0 0 127 0" result="hardAlpha"/>
<feOffset dy="4"/>
<feGaussianBlur stdDeviation="2"/>
<feComposite in2="hardAlpha" operator="out"/>
<feColorMatrix type="matrix" values="0 0 0 0 0 0 0 0 0 0 0 0 0 0 0 0 0 0 0.25 0"/>
<feBlend mode="normal" in2="BackgroundImageFix" result="effect1_dropShadow_0_1"/>
<feBlend mode="normal" in="SourceGraphic" in2="effect1_dropShadow_0_1" result="shape"/>
</filter>
<clipPath id="clip0_0_1">
<rect width="1920" height="2948" fill="white" transform="translate(-1614 -2465)"/>
</clipPath>
</defs>
</svg>
